# xmcd
#
# Track frame offsets:
#	150
#	10097
#	25325
#	34577
#	48617
#	60907
#	77467
#	93735
#	104597
#	121970
#	137617
#	150737
#	163620
#	178342
#
# Disc length: 2606 seconds
#
# Revision: 1
# Processed by: cddbd v1.4PL0 Copyright (c) Steve Scherf et al.
# Submitted via: audiograbber 1.80
#
DISCID=af0a2c0e
DTITLE=Ralf Paulsen - Meine schönsten Westernsongs
DYEAR=1900
DGENRE=
TTITLE0=Bonanza
TTITLE1=Es hängt ein Pferdehalfter an der Wand
TTITLE2=Tränen in Deinen Augen
TTITLE3=Tom Dooley
TTITLE4=Die Western von gestern
TTITLE5=High Noon - 12 Uhr mittags
TTITLE6=Neu sind die Namen
TTITLE7=Geisterreiter
TTITLE8=Das Duell
TTITLE9=Königin der Nacht
TTITLE10=Das alte Haus von Rocky Docky
TTITLE11=Frei Fahrt für freie Europäer
TTITLE12=Ich sing die alten Westernsongs
TTITLE13=Little Joe goodby
EXTD=
EXTT0=
EXTT1=
EXTT2=
EXTT3=
EXTT4=
EXTT5=
EXTT6=
EXTT7=
EXTT8=
EXTT9=
EXTT10=
EXTT11=
EXTT12=
EXTT13=
PLAYORDER=
